<svg width="328" height="324" viewBox="0 0 328 324" fill="none" xmlns="http://www.w3.org/2000/svg">
<rect width="328" height="324" fill="#E5E5E5"/>
<path d="M317.45 56.0222C317.45 140.8 248.972 209.527 164.5 209.527C80.0283 209.527 11.5504 140.8 11.5504 56.0222V54.978C11.5504 -29.8002 80.0283 -98.5265 164.5 -98.5265C248.972 -98.5265 317.45 -29.8002 317.45 54.978V56.0222Z" fill="#3E4062"/>
<path opacity="0.5" d="M428 56.5443C428 202.599 310.027 321 164.5 321C18.973 321 -99 202.599 -99 56.5443V54.4557C-99 -91.5991 18.973 -210 164.5 -210C310.027 -210 428 -91.5991 428 54.4557V56.5443Z" stroke="#878D92"/>
<path d="M339.56 56.0224C339.56 153.056 261.183 231.717 164.5 231.717C67.8172 231.717 -10.5597 153.056 -10.5597 56.0224V54.9781C-10.5597 -42.0554 67.8172 -120.717 164.5 -120.717C261.183 -120.717 339.56 -42.0554 339.56 54.9781V56.0224Z" stroke="#878D92"/>
</svg>
